<svg xmlns="http://www.w3.org/2000/svg" version="1.1" xmlns:xlink="http://www.w3.org/1999/xlink" xmlns:svgjs="http://svgjs.dev/svgjs" viewBox="0 0 12.222390559239221 3.845865584362709"><g transform="matrix(1,0,0,1,3.819362272709405,0.6130680196013583)"><g><path id="logo-path" d=" M 1.3185 0.1649999999999998 L 1.3185 1.2225 L 1.0245 1.2225 L 1.0245 0.6389999999999999 L 0.8250000000000001 1.2225 L 0.579 1.2225 L 0.378 0.6345 L 0.378 1.2225 L 0.084 1.2225 L 0.084 0.1649999999999998 L 0.4395 0.1649999999999998 L 0.705 0.8519999999999999 L 0.9645 0.1649999999999998 L 1.3185 0.1649999999999998 M 1.652246337890625 1.1804999999999999 Q 1.552496337890625 1.128 1.495496337890625 1.0305 Q 1.438496337890625 0.9329999999999999 1.438496337890625 0.8009999999999999 Q 1.438496337890625 0.6704999999999999 1.496246337890625 0.573 Q 1.553996337890625 0.4754999999999999 1.653746337890625 0.42299999999999993 Q 1.753496337890625 0.37049999999999994 1.879496337890625 0.37049999999999994 Q 2.0054963378906248 0.37049999999999994 2.105246337890625 0.42299999999999993 Q 2.204996337890625 0.4754999999999999 2.262746337890625 0.573 Q 2.320496337890625 0.6704999999999999 2.320496337890625 0.8009999999999999 Q 2.320496337890625 0.9315 2.262746337890625 1.02975 Q 2.204996337890625 1.128 2.104496337890625 1.1804999999999999 Q 2.003996337890625 1.2329999999999999 1.877996337890625 1.2329999999999999 Q 1.751996337890625 1.2329999999999999 1.652246337890625 1.1804999999999999 M 1.9807463378906252 0.9322499999999999 Q 2.021996337890625 0.8864999999999998 2.021996337890625 0.8009999999999999 Q 2.021996337890625 0.7154999999999999 1.9807463378906252 0.6704999999999999 Q 1.939496337890625 0.6255 1.879496337890625 0.6255 Q 1.819496337890625 0.6255 1.778996337890625 0.6704999999999999 Q 1.738496337890625 0.7154999999999999 1.738496337890625 0.8009999999999999 Q 1.738496337890625 0.8879999999999999 1.777496337890625 0.9329999999999999 Q 1.8164963378906251 0.978 1.877996337890625 0.978 Q 1.939496337890625 0.978 1.9807463378906252 0.9322499999999999 M 2.8319758300781253 0.4042499999999999 Q 2.894975830078125 0.37049999999999994 2.980475830078125 0.37049999999999994 Q 3.080975830078125 0.37049999999999994 3.162725830078125 0.42299999999999993 Q 3.244475830078125 0.4754999999999999 3.291725830078125 0.573 Q 3.338975830078125 0.6704999999999999 3.338975830078125 0.8009999999999999 Q 3.338975830078125 0.9315 3.291725830078125 1.02975 Q 3.244475830078125 1.128 3.162725830078125 1.1804999999999999 Q 3.080975830078125 1.2329999999999999 2.980475830078125 1.2329999999999999 Q 2.894975830078125 1.2329999999999999 2.8319758300781253 1.19925 Q 2.768975830078125 1.1655 2.734475830078125 1.1055 L 2.734475830078125 1.2225 L 2.440475830078125 1.2225 L 2.440475830078125 0.11249999999999982 L 2.734475830078125 0.11249999999999982 L 2.734475830078125 0.4979999999999999 Q 2.768975830078125 0.43799999999999994 2.8319758300781253 0.4042499999999999 M 2.9962258300781253 0.67275 Q 2.951975830078125 0.6269999999999999 2.887475830078125 0.6269999999999999 Q 2.822975830078125 0.6269999999999999 2.778725830078125 0.6734999999999999 Q 2.734475830078125 0.7199999999999999 2.734475830078125 0.8009999999999999 Q 2.734475830078125 0.8835 2.778725830078125 0.9299999999999999 Q 2.822975830078125 0.9764999999999999 2.887475830078125 0.9764999999999999 Q 2.951975830078125 0.9764999999999999 2.9962258300781253 0.9292499999999999 Q 3.040475830078125 0.8819999999999999 3.040475830078125 0.8009999999999999 Q 3.040475830078125 0.7184999999999999 2.9962258300781253 0.67275 M 3.48371484375 0.26024999999999987 Q 3.43646484375 0.2174999999999998 3.43646484375 0.1529999999999998 Q 3.43646484375 0.08699999999999997 3.48371484375 0.04349999999999987 Q 3.53096484375 0 3.60896484375 0 Q 3.68546484375 0 3.73271484375 0.04349999999999987 Q 3.77996484375 0.08699999999999997 3.77996484375 0.1529999999999998 Q 3.77996484375 0.2174999999999998 3.73271484375 0.26024999999999987 Q 3.68546484375 0.30299999999999994 3.60896484375 0.30299999999999994 Q 3.53096484375 0.30299999999999994 3.48371484375 0.26024999999999987 M 3.75446484375 0.3809999999999999 L 3.75446484375 1.2225 L 3.46046484375 1.2225 L 3.46046484375 0.3809999999999999 L 3.75446484375 0.3809999999999999 M 4.08818994140625 1.1804999999999999 Q 3.98843994140625 1.128 3.93143994140625 1.0305 Q 3.87443994140625 0.9329999999999999 3.87443994140625 0.8009999999999999 Q 3.87443994140625 0.6704999999999999 3.93218994140625 0.573 Q 3.98993994140625 0.4754999999999999 4.08968994140625 0.42299999999999993 Q 4.18943994140625 0.37049999999999994 4.31543994140625 0.37049999999999994 Q 4.44143994140625 0.37049999999999994 4.54118994140625 0.42299999999999993 Q 4.64093994140625 0.4754999999999999 4.69868994140625 0.573 Q 4.75643994140625 0.6704999999999999 4.75643994140625 0.8009999999999999 Q 4.75643994140625 0.9315 4.69868994140625 1.02975 Q 4.64093994140625 1.128 4.54043994140625 1.1804999999999999 Q 4.43993994140625 1.2329999999999999 4.31393994140625 1.2329999999999999 Q 4.18793994140625 1.2329999999999999 4.08818994140625 1.1804999999999999 M 4.41668994140625 0.9322499999999999 Q 4.45793994140625 0.8864999999999998 4.45793994140625 0.8009999999999999 Q 4.45793994140625 0.7154999999999999 4.41668994140625 0.6704999999999999 Q 4.37543994140625 0.6255 4.31543994140625 0.6255 Q 4.25543994140625 0.6255 4.21493994140625 0.6704999999999999 Q 4.17443994140625 0.7154999999999999 4.17443994140625 0.8009999999999999 Q 4.17443994140625 0.8879999999999999 4.21343994140625 0.9329999999999999 Q 4.25243994140625 0.978 4.31393994140625 0.978 Q 4.37543994140625 0.978 4.41668994140625 0.9322499999999999 M 5.67291943359375 0.1649999999999998 L 5.67291943359375 0.3989999999999999 L 5.39091943359375 0.3989999999999999 L 5.39091943359375 1.2225 L 5.09691943359375 1.2225 L 5.09691943359375 0.3989999999999999 L 4.81791943359375 0.3989999999999999 L 4.81791943359375 0.1649999999999998 L 5.67291943359375 0.1649999999999998 M 6.19642529296875 0.41549999999999987 Q 6.26692529296875 0.37349999999999994 6.34792529296875 0.37349999999999994 L 6.34792529296875 0.6869999999999999 L 6.26542529296875 0.6869999999999999 Q 6.16942529296875 0.6869999999999999 6.12292529296875 0.7244999999999999 Q 6.07642529296875 0.7619999999999999 6.07642529296875 0.855 L 6.07642529296875 1.2225 L 5.78242529296875 1.2225 L 5.78242529296875 0.3809999999999999 L 6.07642529296875 0.3809999999999999 L 6.07642529296875 0.5294999999999999 Q 6.12592529296875 0.4574999999999999 6.19642529296875 0.41549999999999987 M 6.47620751953125 0.26024999999999987 Q 6.42895751953125 0.2174999999999998 6.42895751953125 0.1529999999999998 Q 6.42895751953125 0.08699999999999997 6.47620751953125 0.04349999999999987 Q 6.52345751953125 0 6.60145751953125 0 Q 6.67795751953125 0 6.72520751953125 0.04349999999999987 Q 6.77245751953125 0.08699999999999997 6.77245751953125 0.1529999999999998 Q 6.77245751953125 0.2174999999999998 6.72520751953125 0.26024999999999987 Q 6.67795751953125 0.30299999999999994 6.60145751953125 0.30299999999999994 Q 6.52345751953125 0.30299999999999994 6.47620751953125 0.26024999999999987 M 6.74695751953125 0.3809999999999999 L 6.74695751953125 1.2225 L 6.45295751953125 1.2225 L 6.45295751953125 0.3809999999999999 L 6.74695751953125 0.3809999999999999 M 7.3064326171875 0.4049999999999999 Q 7.3694326171875 0.37049999999999994 7.4549326171875 0.37049999999999994 Q 7.5554326171875 0.37049999999999994 7.6371826171875 0.42299999999999993 Q 7.7189326171875 0.4754999999999999 7.7661826171875 0.573 Q 7.8134326171875 0.6704999999999999 7.8134326171875 0.8009999999999999 Q 7.8134326171875 0.9315 7.7661826171875 1.02975 Q 7.7189326171875 1.128 7.6371826171875 1.1804999999999999 Q 7.5554326171875 1.2329999999999999 7.4549326171875 1.2329999999999999 Q 7.3694326171875 1.2329999999999999 7.3071826171875 1.1985 Q 7.2449326171875 1.164 7.2089326171875 1.1055 L 7.2089326171875 1.6244999999999998 L 6.9149326171875 1.6244999999999998 L 6.9149326171875 0.3809999999999999 L 7.2089326171875 0.3809999999999999 L 7.2089326171875 0.4979999999999999 Q 7.2434326171875 0.4394999999999999 7.3064326171875 0.4049999999999999 M 7.4706826171875 0.67275 Q 7.4264326171875 0.6269999999999999 7.3619326171875 0.6269999999999999 Q 7.2974326171875 0.6269999999999999 7.2531826171875 0.6734999999999999 Q 7.2089326171875 0.7199999999999999 7.2089326171875 0.8009999999999999 Q 7.2089326171875 0.8835 7.2531826171875 0.9299999999999999 Q 7.2974326171875 0.9764999999999999 7.3619326171875 0.9764999999999999 Q 7.4264326171875 0.9764999999999999 7.4706826171875 0.9292499999999999 Q 7.5149326171875 0.8819999999999999 7.5149326171875 0.8009999999999999 Q 7.5149326171875 0.7184999999999999 7.4706826171875 0.67275" fill="#1e5245" fill-rule="nonzero"></path></g><g><path d=" M 0.4084090909090909 2.0213727272727273 L 0.4084090909090909 2.4979636363636364 L 0.36068181818181816 2.4979636363636364 L 0.36068181818181816 2.2750090909090908 L 0.10227272727272727 2.2750090909090908 L 0.10227272727272727 2.4979636363636364 L 0.05454545454545454 2.4979636363636364 L 0.05454545454545454 2.0213727272727273 L 0.10227272727272727 2.0213727272727273 L 0.10227272727272727 2.2354636363636367 L 0.36068181818181816 2.2354636363636367 L 0.36068181818181816 2.0213727272727273 L 0.4084090909090909 2.0213727272727273 M 0.5202382590553977 2.0452363636363637 Q 0.5100109863281249 2.035009090909091 0.5100109863281249 2.020009090909091 Q 0.5100109863281249 2.005009090909091 0.5202382590553977 1.9951227272727272 Q 0.5304655317826704 1.9852363636363637 0.5447837136008522 1.9852363636363637 Q 0.5591018954190341 1.9852363636363637 0.5693291681463067 1.9951227272727272 Q 0.5795564408735795 2.005009090909091 0.5795564408735795 2.020009090909091 Q 0.5795564408735795 2.035009090909091 0.5693291681463067 2.0452363636363637 Q 0.5591018954190341 2.0554636363636365 0.5447837136008522 2.0554636363636365 Q 0.5304655317826704 2.0554636363636365 0.5202382590553977 2.0452363636363637 M 0.5686473499644886 2.1256909090909093 L 0.5686473499644886 2.4979636363636364 L 0.5209200772372159 2.4979636363636364 L 0.5209200772372159 2.1256909090909093 L 0.5686473499644886 2.1256909090909093 M 0.9279681951349431 2.1447818181818183 Q 0.9668318314985795 2.1693272727272728 0.983877286044034 2.206827272727273 L 0.983877286044034 2.1256909090909093 L 1.0316045587713067 2.1256909090909093 L 1.0316045587713067 2.507509090909091 Q 1.0316045587713067 2.5586454545454544 1.0094454678622158 2.598190909090909 Q 0.9872863769531249 2.6377363636363635 0.9477409224076704 2.6592136363636363 Q 0.9081954678622158 2.680690909090909 0.8577409224076704 2.680690909090909 Q 0.7861500133167614 2.680690909090909 0.7387636496803976 2.6466 Q 0.691377286044034 2.612509090909091 0.6797863769531249 2.553872727272727 L 0.7268318314985796 2.553872727272727 Q 0.7391045587713068 2.5927363636363636 0.7735363769531249 2.615918181818182 Q 0.8079681951349431 2.6391 0.8577409224076704 2.6391 Q 0.893877286044034 2.6391 0.9225136496803976 2.623759090909091 Q 0.9511500133167613 2.6084181818181817 0.9675136496803977 2.578418181818182 Q 0.983877286044034 2.5484181818181817 0.983877286044034 2.507509090909091 L 0.983877286044034 2.4154636363636364 Q 0.9661500133167613 2.4536454545454545 0.927627286044034 2.478531818181818 Q 0.8891045587713068 2.5034181818181818 0.8366045587713068 2.5034181818181818 Q 0.7854681951349431 2.5034181818181818 0.7449000133167614 2.4795545454545453 Q 0.7043318314985795 2.455690909090909 0.6814909224076704 2.4120545454545455 Q 0.6586500133167613 2.368418181818182 0.6586500133167613 2.3111454545454544 Q 0.6586500133167613 2.2538727272727272 0.6814909224076704 2.2105772727272726 Q 0.7043318314985795 2.1672818181818183 0.7449000133167614 2.143759090909091 Q 0.7854681951349431 2.120236363636364 0.8366045587713068 2.120236363636364 Q 0.8891045587713068 2.120236363636364 0.9279681951349431 2.1447818181818183 M 0.9654681951349431 2.2327363636363637 Q 0.9470591042258523 2.1986454545454546 0.9153545587713068 2.1802363636363635 Q 0.8836500133167613 2.161827272727273 0.8454681951349431 2.161827272727273 Q 0.8059227405894887 2.161827272727273 0.7745591042258522 2.1795545454545455 Q 0.7431954678622159 2.197281818181818 0.7251272860440341 2.231031818181818 Q 0.7070591042258523 2.2647818181818185 0.7070591042258523 2.3111454545454544 Q 0.7070591042258523 2.3568272727272728 0.7251272860440341 2.3912590909090907 Q 0.7431954678622159 2.425690909090909 0.7745591042258522 2.443759090909091 Q 0.8059227405894887 2.4618272727272728 0.8454681951349431 2.4618272727272728 Q 0.8836500133167613 2.4618272727272728 0.9153545587713068 2.4434181818181817 Q 0.9470591042258523 2.425009090909091 0.9654681951349431 2.390918181818182 Q 0.983877286044034 2.3568272727272728 0.983877286044034 2.311827272727273 Q 0.983877286044034 2.266827272727273 0.9654681951349431 2.2327363636363637 M 1.397391690340909 2.1366 Q 1.4311416903409089 2.1543272727272726 1.450573508522727 2.1908045454545455 Q 1.4700053267045452 2.2272818181818184 1.4700053267045452 2.279781818181818 L 1.4700053267045452 2.4979636363636364 L 1.4229598721590908 2.4979636363636364 L 1.4229598721590908 2.2852363636363635 Q 1.4229598721590908 2.2245545454545455 1.3926189630681816 2.192509090909091 Q 1.3622780539772725 2.1604636363636365 1.3097780539772725 2.1604636363636365 Q 1.255914417613636 2.1604636363636365 1.2238689630681816 2.1945545454545456 Q 1.1918235085227271 2.228645454545455 1.1918235085227271 2.2947818181818183 L 1.1918235085227271 2.4979636363636364 L 1.1440962357954543 2.4979636363636364 L 1.1440962357954543 1.993418181818182 L 1.1918235085227271 1.993418181818182 L 1.1918235085227271 2.1891 Q 1.20955078125 2.155690909090909 1.2439825994318179 2.137281818181818 Q 1.2784144176136363 2.1188727272727275 1.3213689630681817 2.1188727272727275 Q 1.3636416903409088 2.1188727272727275 1.397391690340909 2.1366 M 2.0229478870738635 2.4979636363636364 L 1.904993341619318 2.298872727272727 L 1.8170387961647727 2.298872727272727 L 1.8170387961647727 2.4979636363636364 L 1.7693115234374999 2.4979636363636364 L 1.7693115234374999 2.0213727272727273 L 1.9124933416193182 2.0213727272727273 Q 1.9922660688920453 2.0213727272727273 2.0335160688920455 2.0595545454545454 Q 2.0747660688920453 2.0977363636363635 2.0747660688920453 2.159781818181818 Q 2.0747660688920453 2.2116000000000002 2.0451069779829547 2.2480772727272726 Q 2.0154478870738637 2.2845545454545455 1.957493341619318 2.2954636363636363 L 2.0802206143465907 2.4979636363636364 L 2.0229478870738635 2.4979636363636364 M 1.8170387961647727 2.260009090909091 L 1.9131751598011364 2.260009090909091 Q 1.9690842507102273 2.260009090909091 1.9973797052556819 2.2327363636363637 Q 2.0256751598011364 2.2054636363636364 2.0256751598011364 2.159781818181818 Q 2.0256751598011364 2.1127363636363636 1.998402432528409 2.087168181818182 Q 1.9711297052556818 2.0616 1.9124933416193182 2.0616 L 1.8170387961647727 2.0616 L 1.8170387961647727 2.260009090909091 M 2.5083854536576706 2.330236363636364 L 2.199521817294034 2.330236363636364 Q 2.2015672718394885 2.372509090909091 2.2199763627485796 2.402509090909091 Q 2.2383854536576706 2.432509090909091 2.2683854536576704 2.44785 Q 2.2983854536576707 2.463190909090909 2.333839999112216 2.463190909090909 Q 2.3802036354758522 2.463190909090909 2.4119081809303977 2.4406909090909092 Q 2.443612726384943 2.4181909090909093 2.453839999112216 2.3800090909090907 L 2.5042945445667613 2.3800090909090907 Q 2.4906581809303976 2.4345545454545454 2.445999090021307 2.468986363636364 Q 2.401339999112216 2.5034181818181818 2.333839999112216 2.5034181818181818 Q 2.281339999112216 2.5034181818181818 2.239749090021307 2.4798954545454546 Q 2.1981581809303976 2.4563727272727274 2.1746354536576704 2.4130772727272727 Q 2.151112726384943 2.369781818181818 2.151112726384943 2.311827272727273 Q 2.151112726384943 2.2538727272727272 2.174294544566761 2.2102363636363638 Q 2.1974763627485796 2.1666 2.2390672718394886 2.143418181818182 Q 2.2806581809303976 2.120236363636364 2.333839999112216 2.120236363636364 Q 2.387021817294034 2.120236363636364 2.426908180930398 2.143418181818182 Q 2.4667945445667616 2.1666 2.4882718172940343 2.2058045454545456 Q 2.509749090021307 2.245009090909091 2.509749090021307 2.292736363636364 Q 2.509749090021307 2.317281818181818 2.5083854536576706 2.330236363636364 M 2.4446354536576704 2.2204636363636365 Q 2.4272490900213066 2.1911454545454547 2.397249090021307 2.1761454545454546 Q 2.367249090021307 2.1611454545454545 2.3317945445667614 2.1611454545454545 Q 2.278612726384943 2.1611454545454545 2.241112726384943 2.1952363636363637 Q 2.2036127263849434 2.229327272727273 2.199521817294034 2.2913727272727273 L 2.461339999112216 2.2913727272727273 Q 2.4620218172940342 2.2497818181818183 2.4446354536576704 2.2204636363636365 M 2.6014599609375 2.2105772727272726 Q 2.624300870028409 2.1672818181818183 2.664869051846591 2.143759090909091 Q 2.7054372336647727 2.120236363636364 2.756573597301136 2.120236363636364 Q 2.8097554154829543 2.120236363636364 2.8482781427556816 2.1447818181818183 Q 2.886800870028409 2.1693272727272728 2.9038463245738635 2.207509090909091 L 2.9038463245738635 2.1256909090909093 L 2.9515735973011363 2.1256909090909093 L 2.9515735973011363 2.4979636363636364 L 2.9038463245738635 2.4979636363636364 L 2.9038463245738635 2.4154636363636364 Q 2.886119051846591 2.4536454545454545 2.8475963245738636 2.478531818181818 Q 2.8090735973011363 2.5034181818181818 2.755891779119318 2.5034181818181818 Q 2.7054372336647727 2.5034181818181818 2.664869051846591 2.4795545454545453 Q 2.624300870028409 2.455690909090909 2.6014599609375 2.4120545454545455 Q 2.578619051846591 2.368418181818182 2.578619051846591 2.3111454545454544 Q 2.578619051846591 2.2538727272727272 2.6014599609375 2.2105772727272726 M 2.8854372336647724 2.2327363636363637 Q 2.867028142755682 2.1986454545454546 2.8353235973011364 2.1802363636363635 Q 2.803619051846591 2.161827272727273 2.765437233664773 2.161827272727273 Q 2.7258917791193182 2.161827272727273 2.6945281427556815 2.1795545454545455 Q 2.6631645063920453 2.197281818181818 2.6450963245738635 2.231031818181818 Q 2.6270281427556816 2.2647818181818185 2.6270281427556816 2.3111454545454544 Q 2.6270281427556816 2.3568272727272728 2.6450963245738635 2.3912590909090907 Q 2.6631645063920453 2.425690909090909 2.6945281427556815 2.443759090909091 Q 2.7258917791193182 2.4618272727272728 2.765437233664773 2.4618272727272728 Q 2.803619051846591 2.4618272727272728 2.8353235973011364 2.4434181818181817 Q 2.867028142755682 2.425009090909091 2.8854372336647724 2.390918181818182 Q 2.9038463245738635 2.3568272727272728 2.9038463245738635 2.311827272727273 Q 2.9038463245738635 2.266827272727273 2.8854372336647724 2.2327363636363637 M 3.06542891068892 2.2105772727272726 Q 3.0886107288707385 2.1672818181818183 3.1295198197798295 2.143759090909091 Q 3.17042891068892 2.120236363636364 3.2229289106889203 2.120236363636364 Q 3.2917925470525566 2.120236363636364 3.3364516379616473 2.1543272727272726 Q 3.3811107288707385 2.188418181818182 3.3940652743252837 2.2470545454545454 L 3.3429289106889204 2.2470545454545454 Q 3.3333834561434657 2.206827272727273 3.30167891068892 2.1839863636363637 Q 3.2699743652343747 2.1611454545454545 3.2229289106889203 2.1611454545454545 Q 3.18542891068892 2.1611454545454545 3.1554289106889204 2.178190909090909 Q 3.12542891068892 2.1952363636363637 3.108042547052557 2.2289863636363636 Q 3.090656183416193 2.2627363636363635 3.090656183416193 2.311827272727273 Q 3.090656183416193 2.3609181818181817 3.108042547052557 2.395009090909091 Q 3.12542891068892 2.4291 3.1554289106889204 2.4461454545454546 Q 3.18542891068892 2.463190909090909 3.2229289106889203 2.463190909090909 Q 3.2699743652343747 2.463190909090909 3.30167891068892 2.44035 Q 3.3333834561434657 2.417509090909091 3.3429289106889204 2.3766 L 3.3940652743252837 2.3766 Q 3.3811107288707385 2.4338727272727274 3.3361107288707386 2.4686454545454546 Q 3.2911107288707386 2.5034181818181818 3.2229289106889203 2.5034181818181818 Q 3.17042891068892 2.5034181818181818 3.1295198197798295 2.4798954545454546 Q 3.0886107288707385 2.4563727272727274 3.06542891068892 2.4130772727272727 Q 3.042247092507102 2.369781818181818 3.042247092507102 2.311827272727273 Q 3.042247092507102 2.2538727272727272 3.06542891068892 2.2105772727272726 M 3.738708052201704 2.1366 Q 3.7724580522017046 2.1543272727272726 3.7918898703835224 2.1908045454545455 Q 3.8113216885653407 2.2272818181818184 3.8113216885653407 2.279781818181818 L 3.8113216885653407 2.4979636363636364 L 3.7642762340198863 2.4979636363636364 L 3.7642762340198863 2.2852363636363635 Q 3.7642762340198863 2.2245545454545455 3.7339353249289773 2.192509090909091 Q 3.703594415838068 2.1604636363636365 3.651094415838068 2.1604636363636365 Q 3.597230779474432 2.1604636363636365 3.565185324928977 2.1945545454545456 Q 3.5331398703835224 2.228645454545455 3.5331398703835224 2.2947818181818183 L 3.5331398703835224 2.4979636363636364 L 3.48541259765625 2.4979636363636364 L 3.48541259765625 1.993418181818182 L 3.5331398703835224 1.993418181818182 L 3.5331398703835224 2.1891 Q 3.5508671431107954 2.155690909090909 3.5852989612926134 2.137281818181818 Q 3.619730779474432 2.1188727272727275 3.6626853249289772 2.1188727272727275 Q 3.7049580522017043 2.1188727272727275 3.738708052201704 2.1366" fill="#1e5245" fill-rule="nonzero"></path></g><g clip-path="url(#SvgjsClipPath1005)"><g clip-path="url(#SvgjsClipPath1003c12d0a45-7979-4a5b-926e-bfaca59164e9)"><path d=" M -0.5171871225805007 1.1610334628194232 L -1.4286940879195282 1.1610334628194232 C -1.3908196162841018 1.0367635561565844 -1.376418845960898 0.9065270813755828 -1.3862282593408668 0.7769845759466903 L -0.7387984137970856 0.7769845759466903 L -0.8406699916443028 0.6008558115138171 L -1.424517121174083 0.6008558115138171 C -1.5472651602291378 0.20673986138030487 -1.9123293142741349 -0.06153196735876498 -2.325117562233337 -0.06096136393091611 C -2.575111199012952 -0.06096136393091611 -2.814865747281093 0.03834822160237872 -2.991637943101443 0.21512041742273857 C -3.168410138921809 0.39189261324309643 -3.267719724455108 0.6316471615112357 -3.267719724455108 0.8816407982908591 C -3.2682036399196774 1.0408519175616178 -3.2282824125965757 1.1975826560321163 -3.1516928704149763 1.3371622272523456 L -2.2401859050759807 1.3371622272523456 C -2.2780763617961473 1.461428843440462 -2.292477464846357 1.5916683273097443 -2.282651733654659 1.7212111141250255 L -2.929849525490327 1.7212111141250255 L -2.8282100013512066 1.8973398785578988 L -2.244826979237587 1.8973398785578988 C -2.1219318721546276 2.2913181817573083 -1.7569271957266865 2.559452253516138 -1.3442265381783332 2.558925000294554 C -1.094214030836591 2.5589865721499194 -0.8544237064586038 2.4596967591603836 -0.6776381617746559 2.2829112144764396 C -0.5008526170907239 2.1061256697924975 -0.40156280410116807 1.8663353454145186 -0.4016243759565459 1.6163228380727785 C -0.4009966854770495 1.4571676151581527 -0.44092817094552883 1.3004764661798707 -0.5176512299966447 1.1610334628194274 Z M -2.171962114900423 1.1610334628194232 L -3.0393788757042106 1.1610334628194232 C -3.072716700735233 1.0719348328624037 -3.0902293904440015 0.9776961438466762 -3.0911268526061004 0.8825690131231823 C -3.091309966347014 0.566946978771972 -2.8978289946411633 0.2835434221209197 -2.6038140656376907 0.16877180706849743 C -2.3102553116222673 0.2839159171139663 -2.1172917123303714 0.5672362185086587 -2.11766154720965 0.8825690131231823 C -2.119980303523141 0.9776770233273859 -2.137933578055523 1.0717553178201689 -2.170801846360005 1.1610334628194232 Z M -1.5581800570282844 0.8825690131231823 C -1.5581800570282844 1.1445576495457304 -1.7245625657217916 1.3415712477058181 -1.7245625657217916 1.6172510529050979 C -1.7190046981362235 1.9253643780580396 -1.573896208917335 2.2143009874733215 -1.3300712619854187 2.4027528547565877 C -1.7563539237287757 2.3138762845618635 -2.108147345178374 2.119879384606815 -2.108147345178374 1.6172510529050979 C -2.108147345178374 1.3552624164825495 -1.9419968901929474 1.1582488183224597 -1.9419968901929474 0.8825690131231823 C -1.947554757778499 0.5744556879702404 -2.092663246997404 0.28551907855495645 -2.336488193929304 0.09706721127169007 C -1.9102055321859632 0.18594378146641488 -1.5581800570282844 0.37994068142146287 -1.5581800570282844 0.8825690131231823 Z M -1.5484338012889285 1.6172510529050979 C -1.5460271802124286 1.52215245380842 -1.5280766147234133 1.4280883551760233 -1.4952935021385731 1.3387866032088527 L -0.627644687626705 1.3387866032088527 C -0.5944639276121686 1.4279209631992533 -0.5770324021262594 1.522145425285284 -0.5761287644328958 1.6172510529050936 C -0.5759456506919984 1.932873087256306 -0.769426622397833 2.2162766439073582 -1.0634415514013056 2.3310482589597807 C -1.3568603550541392 2.2154088600576802 -1.5493733938769512 1.9317054344240268 -1.5484338012888959 1.6163228380727785 Z" fill="#1e5245" transform="matrix(1,0,0,1,0,0)" fill-rule="evenodd"></path></g></g></g><defs><clipPath id="SvgjsClipPath1005"><path d=" M -3.2672556170389635 -0.06096136393091611 h 2.8672556170389636 v 2.6198863642254686 h -2.8672556170389636 Z"></path></clipPath><clipPath id="SvgjsClipPath1003c12d0a45-7979-4a5b-926e-bfaca59164e9"><path d=" M -3.2672556170389635 -0.06096136393091611 L -0.3999999999999999 -0.06096136393091611 L -0.3999999999999999 2.5589250002945523 L -3.2672556170389635 2.5589250002945523 Z"></path></clipPath></defs></svg>